<?xml version="1.0" encoding="utf-8"?>
<!-- Generator: Adobe Illustrator 18.1.1, SVG Export Plug-In . SVG Version: 6.00 Build 0)  -->
<svg version="1.1" id="Layer_1" xmlns="http://www.w3.org/2000/svg" xmlns:xlink="http://www.w3.org/1999/xlink" x="0px" y="0px"
	 width="48px" height="48px" viewBox="0 0 48 48" style="enable-background:new 0 0 48 48;" xml:space="preserve">
<style type="text/css">
	.st0{fill:#FAFAFA;}
	.st1{fill:#E0E0E0;}
	.st2{fill:#9C27B0;}
	.st3{fill:#AB47BC;}
	.st4{fill:#E1BEE7;}
	.st5{fill:#BDBDBD;}
	.st6{fill:#757575;}
</style>
<g>
	<path class="st0" d="M29,6h-5v16L11.1716,38.8284C10.4214,39.5785,10,40.5959,10,41.6569V44c0,2.2091,1.7909,4,4,4h15V6z"/>
	<path class="st1" d="M29,6h5v16l12.8284,16.8284C47.5786,39.5785,48,40.5959,48,41.6569V44c0,2.2091-1.7909,4-4,4H29V6z"/>
	<polygon class="st2" points="18,10 12,14 6,10 6,4 12,0 18,4 	"/>
	<polygon class="st3" points="12,20 6,24 0,20 0,14 6,10 12,14 	"/>
	<polygon class="st4" points="24,20 18,24 12,20 12,14 18,10 24,14 	"/>
	<path class="st5" d="M34,6H24c-1.1,0-2-0.9-2-2V2c0-1.1,0.9-2,2-2h10c1.1,0,2,0.9,2,2v2C36,5.1,35.1,6,34,6z"/>
	<path class="st3" d="M45.4143,40.2427l-0.0951-0.095l-0.0814-0.1069l-5.2014-6.8232c-0.86,0.4799-2.509,1.1737-4.9348,1.175
		c-1.7695,0-3.9414-0.373-6.498-1.4746c-0.9774-0.4216-1.8759-0.7112-2.7125-0.918h-5.7292
		c-1.0294,0.3254-1.5814,0.738-1.6364,0.7813l-0.568,0.4445l-5.1952,6.8151l-0.0814,0.1069l-0.0951,0.095
		C12.208,40.6204,12,41.1226,12,41.6569V44c0,1.1028,0.8972,2,2,2h30c1.1028,0,2-0.8972,2-2v-2.3431
		C46,41.1226,45.792,40.6204,45.4143,40.2427z"/>
	<g>
		<circle class="st0" cx="22" cy="40" r="4"/>
		<circle class="st3" cx="22" cy="40" r="2"/>
	</g>
	<path class="st2" d="M45.3192,40.1477l-0.0814-0.1069l-5.2014-6.8232c-0.86,0.4799-2.509,1.1737-4.9348,1.175
		c-1.6744,0-3.7214-0.3561-6.1016-1.3252V46h15c1.1028,0,2-0.8972,2-2v-2.3431c0-0.5343-0.208-1.0365-0.5857-1.4142L45.3192,40.1477
		z"/>
	<g>
		<circle class="st0" cx="30" cy="37" r="3"/>
		<circle class="st2" cx="30" cy="37" r="1"/>
	</g>
	<circle class="st0" cx="25" cy="33" r="1"/>
	<path class="st6" d="M34,0h-5v6h5c1.1,0,2-0.9,2-2V2C36,0.9,35.1,0,34,0z"/>
</g>
</svg>
