<?xml version="1.0" encoding="utf-8"?>
<!-- Generator: Adobe Illustrator 18.1.1, SVG Export Plug-In . SVG Version: 6.00 Build 0)  -->
<svg version="1.1" id="Layer_1" xmlns="http://www.w3.org/2000/svg" xmlns:xlink="http://www.w3.org/1999/xlink" x="0px" y="0px"
	 width="48px" height="48px" viewBox="0 0 48 48" style="enable-background:new 0 0 48 48;" xml:space="preserve">
<style type="text/css">
	.st0{fill:#FAFAFA;}
	.st1{fill:#BDBDBD;}
	.st2{fill:#9E9E9E;}
	.st3{fill:#03A9F4;}
	.st4{fill:#F44336;}
	.st5{fill:#2196F3;}
	.st6{fill:#FFEB3B;}
	.st7{fill:#4CAF50;}
</style>
<g>
	<path class="st0" d="M37.9998,48H14c-1.1,0-2-0.9-2-2V2c0-1.1,0.9-2,2-2h32c1.1,0,2,0.9,2,2v36.0001L37.9998,48z"/>
	<path class="st1" d="M38,40.0001V48l10-9.9999h-8C38.8954,38.0001,38,38.8955,38,40.0001z"/>
	<path class="st2" d="M12,24c5.514,0,10,4.486,10,10s-4.486,10-10,10S2,39.514,2,34S6.486,24,12,24 M12,22C5.3726,22,0,27.3726,0,34
		s5.3726,12,12,12s12-5.3726,12-12S18.6274,22,12,22L12,22z"/>
	<circle class="st0" cx="12" cy="34" r="10"/>
	<g>
		<polygon class="st3" points="10.2324,40.6309 5.2822,35.6816 8.1104,32.8535 10.2324,34.9746 15.8896,29.3184 18.7178,32.1465 		
			"/>
	</g>
	<g>
		<path class="st4" d="M14,10h8V2C17.5817,2,14,5.5817,14,10z"/>
		<path class="st5" d="M22,10h-8c0,4.4183,3.5817,8,8,8c2.2091,0,4.2091-0.8954,5.6568-2.3432"/>
		<path class="st6" d="M22,2v8l5.6568,5.6568C29.1046,14.2091,30,12.2091,30,10C30,5.5817,26.4183,2,22,2z"/>
	</g>
	<rect x="32" y="12" class="st7" width="2" height="4"/>
	<rect x="36" y="10" class="st7" width="2" height="6"/>
	<rect x="40" y="6" class="st7" width="2" height="10"/>
	<rect x="44" y="4" class="st7" width="2" height="12"/>
	<rect x="26" y="24" class="st1" width="20" height="2"/>
	<rect x="26" y="28" class="st1" width="20" height="2"/>
	<rect x="26" y="32" class="st1" width="20" height="2"/>
</g>
</svg>
